<svg width="101" height="54" viewBox="0 0 101 54" fill="none" xmlns="http://www.w3.org/2000/svg">
<g filter="url(#filter0_d_231_122)">
<path d="M96.7735 6.5L91 0.726497L85.2265 6.5L91 12.2735L96.7735 6.5ZM48.5 6.5V5.5H47.5V6.5H48.5ZM48.5 44.5V45.5H49.5V44.5H48.5ZM91 5.5H89.2292V7.5H91V5.5ZM85.6875 5.5H82.1458V7.5H85.6875V5.5ZM78.6042 5.5H75.0625V7.5H78.6042V5.5ZM71.5208 5.5H69.75V7.5H71.5208V5.5ZM69.75 5.5H67.9792V7.5H69.75V5.5ZM64.4375 5.5L60.8958 5.5V7.5L64.4375 7.5V5.5ZM57.3542 5.5H53.8125V7.5H57.3542V5.5ZM50.2708 5.5H48.5V7.5H50.2708V5.5ZM47.5 6.5V8.875H49.5V6.5H47.5ZM47.5 13.625L47.5 18.375H49.5L49.5 13.625H47.5ZM47.5 23.125V25.5H49.5V23.125H47.5ZM47.5 25.5V27.875H49.5V25.5H47.5ZM47.5 32.625V37.375H49.5V32.625H47.5ZM47.5 42.125V44.5H49.5V42.125H47.5ZM48.5 43.5H46.6458V45.5H48.5V43.5ZM42.9375 43.5H39.2292V45.5H42.9375V43.5ZM35.5208 43.5H31.8125V45.5H35.5208V43.5ZM28.1042 43.5H26.25V45.5H28.1042V43.5ZM26.25 43.5H24.3958V45.5H26.25V43.5ZM20.6875 43.5H16.9792V45.5H20.6875V43.5ZM13.2708 43.5H9.5625V45.5H13.2708V43.5ZM5.85417 43.5L4 43.5V45.5H5.85417V43.5Z" fill="black"/>
</g>
<defs>
<filter id="filter0_d_231_122" x="0" y="0.726562" width="100.774" height="52.7734" filterUnits="userSpaceOnUse" color-interpolation-filters="sRGB">
<feFlood flood-opacity="0" result="BackgroundImageFix"/>
<feColorMatrix in="SourceAlpha" type="matrix" values="0 0 0 0 0 0 0 0 0 0 0 0 0 0 0 0 0 0 127 0" result="hardAlpha"/>
<feOffset dy="4"/>
<feGaussianBlur stdDeviation="2"/>
<feComposite in2="hardAlpha" operator="out"/>
<feColorMatrix type="matrix" values="0 0 0 0 0 0 0 0 0 0 0 0 0 0 0 0 0 0 0.25 0"/>
<feBlend mode="normal" in2="BackgroundImageFix" result="effect1_dropShadow_231_122"/>
<feBlend mode="normal" in="SourceGraphic" in2="effect1_dropShadow_231_122" result="shape"/>
</filter>
</defs>
</svg>
