<svg fill="#fff" width="65" xmlns="http://www.w3.org/2000/svg" viewBox="0 0 150 179"><path d="M138.85 54.073H11.143C5 54.073 0 59.073 0 65.216v13.579c0 5.152 3.532 9.46 8.294 10.727l47.735 86.725C56.03 177.644 75 178.5 75 178.5s17.838-1.43 18.97-2.256l47.736-86.725c4.757-1.267 8.294-5.575 8.294-10.727V65.213c0-6.144-4.999-11.143-11.143-11.143l-.007.003ZM7.425 65.216a3.721 3.721 0 0 1 3.714-3.714H138.85a3.72 3.72 0 0 1 3.714 3.714v13.579a3.72 3.72 0 0 1-3.714 3.714H11.143a3.721 3.721 0 0 1-3.714-3.714v-13.58h-.004ZM88.05 171.57h-26.12L16.994 89.93h115.994l-44.937 81.64ZM102.889 30.053a3.71 3.71 0 0 0 2.626 1.088c.985 0 1.932-.39 2.627-1.088l8.052-8.052a3.708 3.708 0 0 0 0-5.252 3.708 3.708 0 0 0-5.251 0l-1.713 1.713-.002-14.748A3.717 3.717 0 0 0 105.514 0a3.717 3.717 0 0 0-3.715 3.714v14.743l-1.713-1.713a3.708 3.708 0 0 0-5.251 0 3.709 3.709 0 0 0 0 5.252l8.052 8.052.002.005ZM43.853 40.132a3.711 3.711 0 0 0 2.627 1.088c.985 0 1.932-.39 2.627-1.088l8.052-8.052a3.709 3.709 0 0 0 0-5.252 3.709 3.709 0 0 0-5.252 0l-1.713 1.713V13.798a3.717 3.717 0 0 0-3.714-3.714 3.717 3.717 0 0 0-3.714 3.714v14.747l-1.713-1.713a3.709 3.709 0 0 0-5.252 0 3.709 3.709 0 0 0 0 5.251l8.053 8.053v-.004Z"/></svg>