<svg fill="#fff" xmlns="http://www.w3.org/2000/svg" viewBox="0 0 200 161"><path d="M190 0H10C4.486 0 0 4.486 0 10v140.267c0 5.513 4.486 10 10 10h180c5.514 0 10-4.487 10-10V10c0-5.514-4.486-10-10-10Zm3.333 150.263a3.34 3.34 0 0 1-3.333 3.333H10a3.34 3.34 0 0 1-3.333-3.333v-113.3h186.666v113.304-.004Zm0-119.966L6.667 30.3V10.003A3.34 3.34 0 0 1 10 6.669l180-.001A3.34 3.34 0 0 1 193.333 10v20.296Z"/><path d="M182.476 15.151h-67.92a3.335 3.335 0 0 0-3.333 3.334 3.335 3.335 0 0 0 3.333 3.333h67.92a3.336 3.336 0 0 0 3.334-3.333 3.336 3.336 0 0 0-3.334-3.334ZM48.114 126.801c18.38 0 33.334-14.954 33.334-33.333 0-18.38-14.954-33.334-33.334-33.334-18.38 0-33.333 14.954-33.333 33.334 0 18.379 14.954 33.333 33.333 33.333Zm26.437-36.667H67.64c-.407-7.282-2.154-13.793-4.81-18.887 6.317 4.197 10.734 11.014 11.72 18.887Zm-6.911 6.667h6.91c-.99 7.873-5.403 14.686-11.72 18.887 2.656-5.094 4.404-11.6 4.81-18.887ZM51.45 67.84c4.582 2.796 8.795 11.086 9.505 22.293h-9.506V67.841Zm0 28.96h9.505c-.71 11.204-4.92 19.494-9.506 22.293V96.801Zm-6.668-28.96v22.293h-9.505c.71-11.204 4.92-19.494 9.505-22.293Zm0 28.96v22.293c-4.583-2.796-8.796-11.086-9.505-22.293h9.505ZM33.404 71.247c-2.656 5.094-4.403 11.6-4.81 18.887h-6.91c.99-7.873 5.403-14.686 11.72-18.887Zm-4.81 25.554c.407 7.283 2.154 13.793 4.81 18.887-6.317-4.197-10.734-11.014-11.72-18.887h6.91ZM138.552 106.801c2.974 0 5.694-1.01 7.911-2.664l12.237 7.874c-.054.483-.148.957-.148 1.454 0 7.352 5.981 13.333 13.334 13.333s13.333-5.981 13.333-13.333c0-7.353-5.98-13.334-13.333-13.334-4.427 0-8.327 2.191-10.753 5.52l-10.447-6.724c.756-1.67 1.2-3.51 1.2-5.462 0-1.954-.444-3.79-1.2-5.463l10.447-6.723c2.427 3.33 6.327 5.519 10.753 5.519 7.353 0 13.333-5.98 13.333-13.333s-5.98-13.334-13.333-13.334-13.334 5.98-13.334 13.334c0 .497.094.97.148 1.453l-12.237 7.874c-2.22-1.65-4.94-2.664-7.911-2.664-7.352 0-13.333 5.98-13.333 13.334 0 7.352 5.981 13.333 13.333 13.333v.006Zm33.334 0a6.673 6.673 0 0 1 6.666 6.667 6.672 6.672 0 0 1-6.666 6.666 6.673 6.673 0 0 1-6.667-6.666 6.674 6.674 0 0 1 6.667-6.667Zm0-40a6.672 6.672 0 0 1 6.666 6.667 6.672 6.672 0 0 1-6.666 6.666 6.673 6.673 0 0 1-6.667-6.666 6.673 6.673 0 0 1 6.667-6.667Zm-33.334 20a6.673 6.673 0 0 1 6.667 6.667 6.673 6.673 0 0 1-6.667 6.666 6.672 6.672 0 0 1-6.666-6.666 6.672 6.672 0 0 1 6.666-6.667ZM92.693 96.8h13.234l-1.537 1.538a3.328 3.328 0 0 0 0 4.713 3.33 3.33 0 0 0 4.714 0l7.226-7.227a3.328 3.328 0 0 0 0-4.712l-7.226-7.227a3.329 3.329 0 0 0-4.713 0 3.33 3.33 0 0 0 0 4.713l1.537 1.537H92.695a3.335 3.335 0 0 0-3.333 3.334 3.335 3.335 0 0 0 3.333 3.333l-.002-.001ZM20.83 18.504a3.297 3.297 0 1 1-6.594-.002 3.297 3.297 0 0 1 6.595.002ZM37.897 18.504a3.297 3.297 0 1 1-6.594-.002 3.297 3.297 0 0 1 6.594.002ZM54.964 18.492a3.296 3.296 0 1 1-6.592 0 3.296 3.296 0 1 1 6.592 0Z"/></svg>