<svg fill="#fff" width="65" xmlns="http://www.w3.org/2000/svg" viewBox="0 0 200 200"><path d="M194.738 122.167c-3.347-2.696-7.673-3.706-11.917-2.782l-77.265 18.143c.303-1.107.516-2.25.516-3.454 0-7.27-5.914-13.186-13.186-13.186H46.173c-.49-5.06-4.717-9.04-9.903-9.04H10c-5.513 0-10 4.486-10 10v67.757c0 5.513 4.487 10 10 10h26.27c5.672.013 10.223-4.764 10-10.42l26.19 2.556a30.082 30.082 0 0 0 14.427-2.156l104.413-43.387a14.082 14.082 0 0 0 8.7-13.037c0-4.296-1.92-8.304-5.266-10.998l.004.004ZM39.605 189.604a3.34 3.34 0 0 1-3.334 3.334h-26.27a3.34 3.34 0 0 1-3.333-3.334v-67.757a3.34 3.34 0 0 1 3.334-3.333h26.27a3.34 3.34 0 0 1 3.333 3.333v67.757Zm149.137-49.558L84.329 183.433a23.365 23.365 0 0 1-11.22 1.677l-26.84-2.621v-54.93h46.618a6.526 6.526 0 0 1 6.52 6.52c0 2.467-1.398 4.594-3.423 5.699l-3.484.817h-9.564a3.335 3.335 0 0 0-3.333 3.333 3.336 3.336 0 0 0 3.333 3.334h9.95c1.916 0 3.726-.433 5.37-1.17l86.035-20.204a7.413 7.413 0 0 1 6.264 1.473 7.418 7.418 0 0 1 2.776 5.804 7.432 7.432 0 0 1-4.589 6.879v.002ZM37.574 101.779c9.01 2.85 18.014 3.887 26.968 3.887 12.137 0 24.173-1.906 35.981-3.774 20.656-3.27 40.168-6.363 59.894-.113 1.016.327 2.12.14 2.976-.49a3.33 3.33 0 0 0 1.363-2.69V33.817a3.34 3.34 0 0 0-2.327-3.18c-10.721-3.393-21.437-4.21-32.065-3.777v-8.253l1.537 1.537a3.332 3.332 0 0 0 4.715 0 3.33 3.33 0 0 0 0-4.712l-7.227-7.227a3.328 3.328 0 0 0-4.712 0l-7.227 7.227a3.33 3.33 0 0 0 0 4.712 3.329 3.329 0 0 0 4.713 0l1.537-1.537v8.683c-8.15.697-16.236 1.968-24.217 3.231-20.657 3.266-40.172 6.357-59.894.113a3.335 3.335 0 0 0-4.34 3.18V98.6a3.34 3.34 0 0 0 2.327 3.18l-.002-.001Zm4.34-63.551c19.77 5.024 39.493 1.903 58.606-1.12 19.847-3.144 38.629-6.114 57.566-.81v57.89c-19.769-5.02-39.493-1.9-58.606 1.12-19.844 3.14-38.629 6.114-57.566.81l.001-57.886-.001-.004Z"/><path d="M100.002 86.998c11.463 0 20.793-9.328 20.793-20.79 0-11.464-9.327-20.794-20.793-20.794-11.468 0-20.794 9.327-20.794 20.793 0 11.468 9.328 20.79 20.794 20.79Zm0-34.917c7.79 0 14.126 6.336 14.126 14.126 0 7.79-6.336 14.124-14.126 14.124-7.79 0-14.127-6.336-14.127-14.124 0-7.787 6.336-14.126 14.127-14.126ZM67.967 12.917l1.537-1.537v13.233a3.336 3.336 0 0 0 3.334 3.334 3.336 3.336 0 0 0 3.333-3.334V11.38l1.537 1.537a3.331 3.331 0 0 0 4.714 0 3.329 3.329 0 0 0 0-4.713L75.197.978a3.328 3.328 0 0 0-4.713 0l-7.226 7.226a3.329 3.329 0 0 0 0 4.713 3.328 3.328 0 0 0 4.713 0h-.003Z"/></svg>